<svg xmlns="http://www.w3.org/2000/svg" xml:space="preserve" width="246.441" height="53.58" x="0" y="0" version="1.1" viewBox="0 0 246441 53580"><path d="m85690 25486-1376-4190h-9280l-1376 4190H68690L76770 2320h5688l8141 23167zm-9218-8500h6345l-3173-9459zm16222 8500V1302h4310v24124h-4310zm26460-17001c1915 0 3352 599 4490 1856 1137 1257 1735 2933 1735 4969v10176h-4250V15550c0-1019-240-1797-718-2336-480-538-1198-778-2036-778-1017 0-1736 360-2274 1018-540 658-780 1616-780 2754v9278h-4250V15550c0-1019-240-1797-717-2336-480-538-1197-778-2036-778-897 0-1736 360-2334 1018-540 658-778 1616-778 2754v9278h-4250V8904h4250v1736c1017-1436 2514-2274 4610-2274 2034 0 3530 778 4489 2394 1017-1497 2694-2275 4849-2275zm22448 420h4250v16521h-4250V23450c-1257 1618-3113 2456-5447 2456-2155 0-4130-838-5687-2514-1617-1736-2395-3771-2395-6226 0-2454 778-4490 2395-6225 1616-1736 3532-2574 5687-2574 2334 0 4130 778 5447 2454zM133700 20577c838 838 1916 1316 3233 1316 1317 0 2454-419 3292-1316 838-839 1317-1976 1317-3353 0-1377-479-2514-1317-3292-838-838-1975-1317-3292-1317-1317 0-2395 479-3233 1317-838 838-1257 1975-1257 3292 0 1317 420 2455 1257 3353zm20773 538h8800v4370h-13350V2320h4550zm13349-14187c-718 0-1317-240-1856-719-540-538-778-1137-778-1855 0-719 240-1317 778-1856 539-540 1138-780 1856-780 718 0 1317 240 1856 780 538 537 778 1135 778 1854 0 718-240 1317-778 1855-540 480-1138 720-1856 720zm-2095 18557V8904h4310v16522h-4310zm17300-17001c1796 0 3292 599 4490 1856 1197 1197 1796 2933 1796 5028v10117h-4250v-9638c0-1137-360-1915-899-2514-538-598-1376-898-2394-898-1137 0-1976 360-2634 1078-659 718-1018 1736-1018 3113v8920h-4250V8903h4250v1856c1078-1497 2694-2275 4909-2275zm20833 420h4310v16521h-4310V23570c-1078 1498-2635 2336-4910 2336-1795 0-3292-598-4490-1855-1196-1198-1735-2934-1735-5029V8904h4310v9578c0 1138 240 1976 838 2574 599 600 1377 838 2394 838 1138 0 1976-359 2634-1017 660-659 1020-1736 1020-3113v-8860Zm23465 16580h-4968l-3592-5027-3652 5028h-4908l6046-8440-5807-8082h4910l3350 4610L222000 8964h4908l-5806 8082" fill="#fff"/><path d="M50176 30320c2350-161 4214 1379 4376 3648 163 2431-1540 4376-3890 4538-2269 162-4214-1540-4376-3728-81-2431 1540-4214 3890-4457" fill="#86da2f"/><path d="M21892 49366c0-2350 1783-4133 3971-4133s4214 1945 4214 4214c0 2188-1783 4052-3890 4133-2593 0-4295-1620-4295-4214" fill="#24c2ff"/><path d="M28294 23190c-324 161-567-82-648-325-3323-6160-2350-13940 3485-18640 1540-1216 4376-1540 5673-243 567 486 648 972 730 1620 161 1378 486 2675 1377 3730 973 1133 2270 1620 3647 1540 1216 0 2512-163 3323 1215 486 810 243 3971-486 4540-325 242-649 80-892 0-2026-810-4214-810-6321-488-730 81-1054-80-1054-890-80-1379-324-2595-1053-3729-1378-2430-3890-2512-5430-243-1378 1783-1702 3970-2026 6078-568 1945-406 3890-325 5835 0 0-80 0 0 0" fill="#ffcb12"/><path d="M30483 24567a528 528 0 01 162-730c5105-4620 12723-5592 18640-972 1540 1216 2512 3890 1702 5349-325 648-810 891-1378 1053-1216 568-2432 1054-3242 2270-810 1215-972 2512-648 3970 243 1135 730 2432-487 3486-648 648-3647 1134-4457 648-324-243-243-567-162-892 243-2270-243-4295-1054-6240-243-730-162-1053 568-1216 1215-324 2430-972 3322-1864 1935-1864 1530-4295-1064-5348-2025-892-4213-730-6240-568-1944 0-3890 487-5672 1054" fill="#86da2f"/><path d="M29348 26917c243-243 486-162 730 0 5916 3566 8914 10617 6240 17587-730 1782-3080 3565-4782 3160-730-162-1053-567-1460-972-810-1054-1701-2026-3080-2513-1457-486-2673-162-3970 568-1053 648-2188 1458-3484 648-810-486-2188-3242-1864-4133 162-324 567-324 890-324 2268-325 4050-1460 5753-2837 568-486 973-486 1460 162 728 1054 1620 1945 2755 2594 2350 1377 4538 162 4862-2513 243-2270-567-4214-1216-6160-810-1944-1782-3646-2836-5267" fill="#24c2ff"/><path d="M26511 27403c-324 1783-1134 3485-2269 5025-3242 4863-7860 6808-13615 6240-2026-162-3728-1864-3971-3566-81-729 80-1215 567-1782 648-810 1135-1540 1459-2513 567-1945-162-3566-1620-5025-1946-1945-1703-3728 647-5186 233-162 638-324 962-568 568-243 973-243 1136 325 810 2026 2430 3565 4214 4862 648 567 648 892 80 1540a6635 6635 0 00-1782 4214c-162 1945 972 3242 2917 3242 1216 0 2432-486 3485-973 2756-1458 4944-3484 6970-5673 324-80 405-243 810-162" fill="#0069da"/><path d="M11762 8601c162 0 648 81 1053 162 3323 650 5350-567 6484-3647 729-2026 2269-2674 4214-1620 80 0 80 80 162 80 2026 1135 2026 1378 810 3161-1053 1460-1620 3080-1864 4782-162 972-567 1134-1458 810-1460-567-2918-567-4458 0-1702 568-2431 2026-1864 3728 730 2270 2680 3242 4380 4377 1700 1134 3650 1783 5599 2593 243 81 729 81 648 567-81 243-486 243-810 243-4053 163-7862-486-11022-3160-2917-2432-5105-5350-4781-9482 244-1297 1217-2270 2919-2594" fill="#ff4649"/><path d="M4468 33806c-2189 243-4296-1540-4458-3728-162-2188 1620-4296 3647-4458 2350-243 4458 1378 4620 3485 80 2026-1216 4539-3810 4700" fill="#0069da"/><path d="M42072 1875c2269-162 4376 1620 4538 3890 162 2188-1620 4214-3728 4376-2350 162-4376-1540-4538-3728-243-2270 1377-4295 3728-4538" fill="#ffcb12"/><path d="M18650 3577c243 2350-1378 4295-3728 4620-2026 242-4214-1460-4457-3405C10222 2200 11599 335 14030 11c2270-162 4377 1540 4620 3566" fill="#ff4649"/><path d="M117945 117538h-1236l-855-2432h-3774l-855 2432h-1178l3176-8725h1547zm-2449-3428-1530-4283-1534 4283zm8525 3018q-550 263-1048 410-493 146-1050 146-708 0-1300-205-592-210-1014-633-430-421-670-1066-236-645-236-1506 0-1605 880-2520 884-913 2331-913 562 0 1101 158 545 158 996 386v1225h-58q-504-393-1043-603-532-211-1042-211-938 0-1482 632-540 627-540 1846 0 1184 528 1822 533 633 1494 633 334 0 680-88 345-88 620-228 239-123 450-258 210-140 335-240h58zm6252 0q-550 263-1048 410-493 146-1050 146-708 0-1300-205-592-210-1014-633-427-421-662-1066-234-645-234-1506 0-1605 879-2520 885-913 2332-913 562 0 1101 158 545 158 996 386v1225h-58q-504-393-1043-603-533-211-1043-211-938 0-1483 632-540 627-540 1846 0 1184 529 1822 533 633 1494 633 323 0 669-88 346-88 620-228 240-123 453-258 210-140 334-240h58zm6991-2860q0 1600-820 2526-820 925-2198 925-1389 0-2209-925-814-926-814-2526 0-1600 814-2525 820-932 2210-932 1376 10 2196 940 820 928 820 2527zm-1137 0q0-1271-498-1886-500-622-1390-622-898 0-1396 622-493 615-493 1886 0 1230 498 1870 498 632 1390 632 880 0 1377-627 504-633 504-1875zm8268 3270h-1102v-727q-557 440-1066 680-510 238-1125 238-1032 0-1606-625-574-633-574-1852V111000h1101v3726q0 499 47 856 47 350 200 604 158 258 410 375 252 118 732 118 428 0 932-222 510-223 949-568V111000h1102zm7640 0h-1101v-3727q0-450-53-840-53-400-193-620-147-242-422-360-276-122-715-122-451 0-944 224-492 222-943 568v4887h-1101V111000h1101v726q516-427 1066-668 551-240 1131-240 1060 2 1618 640 556 640 556 1840zm5520-58q-310 80-680 134-363 53-650 53-1002 0-1524-540-521-538-521-1728v-3480h-744v-926h744v-1881h1101v1880h2274v927h-2274v2972q0 516 24 809 23 287 164 539 129 234 351 345 229 106 692 106 270 0 562-75 293-82 422-135h59zm11976-2432q0 510-240 1007-234 498-662 844-469 375-1096 586-620 210-1500 210-943 0-1700-175-750-176-1528-521v-1453h82q662 550 1529 850 867 298 1629 298 1078 0 1676-404 610-405 610-1078 0-580-284-856-281-275-861-428-440-117-955-193-510-76-1083-193-1160-246-1723-838-557-598-557-1553 0-1096 926-1793 926-703 2350-703 920 0 1687 176 768 176 1360 433v1371h-83q-498-421-1313-697-810-281-1660-281-932 0-1499 387-564 386-564 996 0 545 281 855 280 310 990 475 373 82 1064 200 692 116 1172 240 973 257 1465 779 491 520 491 1459zm7254-668h-4822q0 603 182 1054 180 446 498 733 304 280 720 422 422 140 926 140 668 0 1342-263 680-270 967-528h58v1200q-556 236-1136 394-580 158-1220 158-1628 0-2542-880-914-883-914-2506 0-1605 873-2548 879-944 2308-944 1325 0 2040 775 720 773 720 2197zm-1072-844q-6-867-440-1342-427-475-1306-475-885-8-1412 512-522 520-592 1295zm6827-1342h-60q-246-60-480-82-229-30-545-30-510 0-984 230-475 222-914 580v4646h-1102v-6545h1102v967q656-528 1154-744 515-223 1036-223 286 0 415 18 130 11 387 52zm6696-1201-2648 6545h-1108l-2630-6545h1195l2027 5209 2010-5210zm2625-1096h-1242v-1142h1242zm-70 7640h-1102v-6544h1102zm7020-410q-551 264-1050 411-490 146-1049 146-708 0-1300-205-592-210-1014-633-427-421-662-1066-234-645-234-1506 0-1605 879-2520 885-913 2332-913 562 0 1100 158 546 158 998 386v1225h-60q-500-393-1040-603-530-211-1040-211-933 0-1480 632-540 627-540 1846 0 1184 530 1822 533 633 1494 633 334 0 680-88 344-88 619-228 240-123 452-258 210-140 334-240h58zm6890-2747h-4822q0 603 182 1054 190 446 500 733 310 280 720 422 430 140 930 140 670 0 1346-263 680-270 967-528h58v1200q-556 236-1136 394-580 158-1220 158-1628 0-2542-880-914-883-914-2506 0-1605 873-2548 879-944 2308-944 1325 0 2040 775 720 773 720 2197zm-1072-844q-6-867-440-1342-427-475-1306-475-885 0-1412 520-522 520-592 1290zm7418 2115q0 897-744 1470-739 575-2022 575-726 0-1336-170-603-176-1013-380v-1237h58q522 392 1160 627 640 228 1225 228 727 0 1137-234 410-234 410-738 0-387-223-586-222-200-855-340-235-53-615-123-375-70-686-152-861-229-1225-668-357-446-357-1090 0-405 164-762 170-357 510-640 328-274 832-432 510-164 1137-164 585 0 1183 146 604 140 1002 346v1178h-70q-420-310-1024-522-603-217-1184-217-603 0-1020 235-414 228-414 685 0 405 252 610 246 205 797 334 304 70 680 140 380 70 632 130 768 175 1184 603 416 433 416 1148" fill="#fff" aria-label="Account Services" display="inline" style="white-space:pre;shape-inside:url(#a)" transform="translate(-121696-153057) scale(1.7361)"/></svg>

