<svg xmlns="http://www.w3.org/2000/svg" width="256" height="256" viewBox="0 0 256 256">
<path d="M 129.00032,14.000374 A 112.99893,112.99961 0 0 0 40.041,57.536822 c 13.782808,3.68229 23.538052,6.846974 26.459684,7.828556 0.04578,-1.792561 0.343057,-17.82489 0.343057,-17.82489 0,0 0.03774,-0.366995 0.233575,-0.558342 0.252207,-0.246282 0.616788,-0.171911 0.616788,-0.171911 3.62509,0.525081 81.001546,11.994441 113.616136,31.000108 4.02776,2.356321 6.01584,4.861571 8.49995,7.401387 9.01563,9.32439 20.92844,48.09605 22.20789,56.09129 0.0503,0.31411 -0.3379,0.65533 -0.50364,0.78463 h -0.004 c -0.92627,0.72278 -1.93503,1.47435 -2.94524,2.14591 -7.71733,5.17775 -25.49627,17.62328 -48.3063,15.59134 -20.48922,-1.81255 -47.25796,-13.56557 -79.528714,-34.82852 3.172886,7.42886 6.299095,14.8807 9.426948,22.32843 4.673374,2.42734 49.780846,25.41258 72.043386,24.96356 17.93109,-0.37353 37.10864,-9.11958 44.78074,-13.7373 0,0 1.68599,-1.01578 2.41968,-0.44885 0.80257,0.62002 0.58055,1.57002 0.39051,2.5402 -0.47199,2.20235 -1.54656,6.22043 -2.27734,8.12772 l -0.61679,1.55469 c -0.87823,2.35295 -1.72119,4.53998 -3.34671,5.88688 -4.51957,4.10964 -11.73316,7.37934 -23.03634,12.29192 -17.47144,7.64263 -45.81723,12.50308 -72.13462,12.33584 -9.425979,-0.20985 -18.532554,-1.25571 -26.529031,-2.18982 -16.410511,-1.85274 -29.763,-3.35585 -37.904892,2.5329 A 112.99893,112.99961 0 0 0 129.00023,240 112.99893,112.99961 0 0 0 241.99955,127.00009 112.99893,112.99961 0 0 0 129.00023,14 Z m 25.20423,65.565719 c -8.84465,-0.281975 -17.27847,2.83917 -23.74437,8.875907 -6.46295,6.016751 -10.16144,14.21959 -10.489,23.05851 -0.61104,18.23411 13.70486,33.59823 31.92317,34.27 8.88482,0.29822 17.30035,-2.82498 23.76627,-8.89778 6.44649,-5.99806 10.14497,-14.20128 10.48899,-23.0402 0.626,-18.21786 -13.70713,-33.614293 -31.94506,-34.266437 z m -0.27738,9.751917 c 12.74575,0.4522 22.72472,11.15936 22.2955,23.90143 -0.19677,6.14494 -2.78896,11.84122 -7.29191,16.06559 -4.50951,4.20476 -10.40337,6.39122 -16.58752,6.20436 -12.71621,-0.46902 -22.6955,-11.1887 -22.26628,-23.93414 0.18686,-6.16791 2.83048,-11.86475 7.31381,-16.06951 4.48316,-4.204749 10.3489,-6.390649 16.5364,-6.16773 z m 3.77735,11.58746 c -5.66315,0 -10.23716,3.04771 -10.23716,6.8395 0,3.75591 4.57401,6.82119 10.23716,6.82119 5.65979,0 10.25177,-3.06547 10.25177,-6.82119 0,-3.79179 -4.5888,-6.8395 -10.25177,-6.8395 z" />
</svg>
