<?xml version="1.0" encoding="UTF-8" standalone="no"?>
<!-- Created with Inkscape (http://www.inkscape.org/) -->

<svg
   xmlns:dc="http://purl.org/dc/elements/1.1/"
   xmlns:cc="http://creativecommons.org/ns#"
   xmlns:rdf="http://www.w3.org/1999/02/22-rdf-syntax-ns#"
   xmlns:svg="http://www.w3.org/2000/svg"
   xmlns="http://www.w3.org/2000/svg"
   xmlns:sodipodi="http://sodipodi.sourceforge.net/DTD/sodipodi-0.dtd"
   xmlns:inkscape="http://www.inkscape.org/namespaces/inkscape"
   width="45mm"
   height="10.58333mm"
   viewBox="0 0 45 10.58333"
   id="svg2"
   version="1.1"
   inkscape:version="0.92pre2 r"
   sodipodi:docname="FAS3_logo.svg"
   inkscape:export-filename="/home/rlerch/Source/fedoraplanet-theme/sub-planets/people/images-v2/fedoraplanet_logo.png"
   inkscape:export-xdpi="192.00006"
   inkscape:export-ydpi="192.00006">
  <defs
     id="defs4" />
  <sodipodi:namedview
     id="base"
     pagecolor="#ffffff"
     bordercolor="#666666"
     borderopacity="1.0"
     inkscape:pageopacity="0.0"
     inkscape:pageshadow="2"
     inkscape:zoom="2"
     inkscape:cx="52.101084"
     inkscape:cy="-9.2329336"
     inkscape:document-units="mm"
     inkscape:current-layer="g4624"
     showgrid="false"
     fit-margin-top="0"
     fit-margin-left="0"
     fit-margin-right="0"
     fit-margin-bottom="0"
     inkscape:window-width="1920"
     inkscape:window-height="1163"
     inkscape:window-x="1920"
     inkscape:window-y="0"
     inkscape:window-maximized="1"
     inkscape:snap-bbox="true"
     inkscape:bbox-nodes="true"
     inkscape:snap-page="true"
     inkscape:snap-global="false" />
  <metadata
     id="metadata7">
    <rdf:RDF>
      <cc:Work
         rdf:about="">
        <dc:format>image/svg+xml</dc:format>
        <dc:type
           rdf:resource="http://purl.org/dc/dcmitype/StillImage" />
        <dc:title></dc:title>
      </cc:Work>
    </rdf:RDF>
  </metadata>
  <g
     inkscape:label="Layer 1"
     inkscape:groupmode="layer"
     id="layer1"
     transform="translate(-48.767028,-31.073165)">
    <g
       id="g4595"
       transform="matrix(0.45619308,0,0,0.45619308,26.519847,-9.145808)">
      <g
         id="g4624"
         transform="matrix(0.92003825,0,0,0.92003825,3.8994993,8.9046582)">
        <text
           id="text4225"
           y="106.14349"
           x="78.137886"
           style="font-style:normal;font-weight:normal;font-size:11.86291027px;line-height:14.82863784px;font-family:Sans;letter-spacing:0px;word-spacing:0px;fill:#555753;fill-opacity:1;stroke:none;stroke-width:0.29657274px;stroke-linecap:butt;stroke-linejoin:miter;stroke-opacity:1;"
           xml:space="preserve"><tspan
             style="font-style:normal;font-variant:normal;font-weight:normal;font-stretch:normal;font-family:Montserrat;-inkscape-font-specification:Montserrat;fill:#555753;fill-opacity:1;stroke-width:0.29657274px;line-height:14.82863784px;"
             y="106.14349"
             x="78.137886"
             id="tspan4227"
             sodipodi:role="line">ACCOUNTS</tspan></text>
        <g
           transform="matrix(0.13021808,0,0,0.13021808,78.615564,87.323483)"
           id="g4488">
          <g
             transform="translate(-266.55899,-345.34488)"
             id="layer1-0">
            <path
               inkscape:connector-curvature="0"
               d="m 316.7736,397.581 c 0,0 0,0 -20.53889,0 0.3327,4.45245 3.92157,7.77609 8.70715,7.77609 3.38983,0 6.31456,-1.39616 8.64094,-3.65507 0.46553,-0.46679 0.99726,-0.59962 1.59519,-0.59962 0.79781,0 1.59561,0.39932 2.12692,1.06388 0.3327,0.46553 0.53216,0.99726 0.53216,1.52857 0,0.73118 -0.3327,1.52857 -0.93106,2.12734 -2.7919,2.99052 -7.51086,4.98503 -12.16403,4.98503 -8.44149,0 -15.22074,-6.77967 -15.22074,-15.22158 0,-8.44149 6.58022,-15.22074 15.02171,-15.22074 8.37529,0 14.62323,6.51317 14.62323,15.08749 0,1.26418 -1.12924,2.12861 -2.39258,2.12861 z m -12.23065,-11.76512 c -4.45329,0 -7.51085,2.92473 -8.17499,7.17731 10.03626,0 16.35083,0 16.35083,0 -0.59836,-4.05355 -3.78874,-7.17731 -8.17584,-7.17731 z"
               id="path11"
               style="fill:#3c6eb4" />
            <path
               inkscape:connector-curvature="0"
               d="m 375.46344,410.80807 c -8.44106,0 -15.22074,-6.77968 -15.22074,-15.22159 0,-8.44149 6.77968,-15.22074 15.22074,-15.22074 8.44234,0 15.22159,6.77925 15.22159,15.22074 -4.2e-4,8.44149 -6.77968,15.22159 -15.22159,15.22159 z m 0,-24.65992 c -5.31688,0 -8.77377,4.25427 -8.77377,9.43833 0,5.18364 3.45689,9.43833 8.77377,9.43833 5.31731,0 8.77504,-4.25469 8.77504,-9.43833 -4.2e-4,-5.18406 -3.45773,-9.43833 -8.77504,-9.43833 z"
               id="path13"
               style="fill:#3c6eb4" />
            <path
               inkscape:connector-curvature="0"
               d="m 412.66183,380.36574 c -4.45963,0 -7.40966,1.319 -10.01391,4.62956 l -0.24036,-1.53995 0,0 c -0.20198,-1.60743 -1.57326,-2.84926 -3.23382,-2.84926 -1.80139,0 -3.26206,1.459 -3.26206,3.26081 0,0.003 0,0.005 0,0.008 l 0,0 0,0.003 0,0 0,23.40712 c 0,1.79464 1.46194,3.25743 3.257,3.25743 1.79465,0 3.25744,-1.46279 3.25744,-3.25743 l 0,-12.56209 c 0,-5.71621 4.98502,-8.57432 10.23613,-8.57432 1.59519,0 2.85726,-1.32953 2.85726,-2.92515 0,-1.59561 -1.26207,-2.85726 -2.85768,-2.85726 z"
               id="path15"
               style="fill:#3c6eb4" />
            <path
               inkscape:connector-curvature="0"
               d="m 447.02614,395.58648 c 0.0666,-8.17541 -5.78326,-15.22074 -15.222,-15.22074 -8.44192,0 -15.28779,6.77925 -15.28779,15.22074 0,8.44191 6.64684,15.22159 14.68985,15.22159 4.01434,0 7.62682,-2.06621 9.23846,-4.22518 l 0.79359,2.01434 0,0 c 0.42589,1.13177 1.5176,1.93717 2.7978,1.93717 1.65001,0 2.98756,-1.33671 2.99009,-2.98545 l 0,0 0,-7.80687 0,0 z m -15.222,9.43833 c -5.31773,0 -8.77419,-4.25469 -8.77419,-9.43833 0,-5.18406 3.45604,-9.43833 8.77419,-9.43833 5.3173,0 8.77419,4.25427 8.77419,9.43833 0,5.18364 -3.45689,9.43833 -8.77419,9.43833 z"
               id="path17"
               style="fill:#3c6eb4" />
            <path
               inkscape:connector-curvature="0"
               d="m 355.01479,368.3337 c 0,-1.7938 -1.46194,-3.18997 -3.25659,-3.18997 -1.79422,0 -3.25743,1.39659 -3.25743,3.18997 l 0,17.1499 c -1.66097,-3.05756 -5.25026,-5.11786 -9.50495,-5.11786 -8.64052,0 -14.42336,6.51318 -14.42336,15.22074 0,8.70757 5.98229,15.22159 14.42336,15.22159 3.76555,0 7.03057,-1.55429 8.98587,-4.25554 l 0.72317,1.83428 c 0.44782,1.25912 1.64917,2.16024 3.06051,2.16024 1.78621,0 3.24984,-1.45435 3.24984,-3.24815 0,-0.005 0,-0.009 0,-0.0139 l 0,0 0,-38.95128 -4.2e-4,0 z m -15.22116,36.69111 c -5.31731,0 -8.70715,-4.25469 -8.70715,-9.43833 0,-5.18406 3.38984,-9.43833 8.70715,-9.43833 5.31773,0 8.70714,4.0544 8.70714,9.43833 0,5.38309 -3.38941,9.43833 -8.70714,9.43833 z"
               id="path19"
               style="fill:#3c6eb4" />
            <path
               inkscape:connector-curvature="0"
               d="m 287.21553,365.34023 c -0.59414,-0.0877 -1.19966,-0.13198 -1.80097,-0.13198 -6.73118,0 -12.20746,5.4767 -12.20746,12.20788 l 0,3.8132 -3.98903,0 c -1.46237,0 -2.65908,1.19671 -2.65908,2.65781 0,1.46321 1.19671,2.93738 2.65908,2.93738 l 3.98819,0 0,20.46004 c 0,1.79464 1.46236,3.25743 3.25658,3.25743 1.79507,0 3.25744,-1.46279 3.25744,-3.25743 l 0,-20.46004 4.40986,0 c 1.46194,0 2.65823,-1.47417 2.65823,-2.93738 0,-1.46152 -1.19629,-2.65823 -2.65823,-2.65823 l -4.40733,0 0,-3.8132 c 0,-3.13852 2.55323,-6.11469 5.69175,-6.11469 0.28294,0 0.56757,0.0211 0.84672,0.062 1.78031,0.26355 3.4358,-0.54269 3.70019,-2.32342 0.2627,-1.77904 -0.96606,-3.43538 -2.74594,-3.69935 z"
               id="path21"
               style="fill:#3c6eb4" />
          </g>
          <path
             inkscape:connector-curvature="0"
             d="m 181.98344,61.675273 2.81558,0 0,0.37898 -1.18152,0 0,2.94935 -0.45254,0 0,-2.94935 -1.18152,0 0,-0.37898 m 3.26144,0 0.67101,0 0.84937,2.26496 0.85381,-2.26496 0.67102,0 0,3.32833 -0.43917,0 0,-2.9226 -0.85828,2.28279 -0.45255,0 -0.85827,-2.28279 0,2.9226 -0.43694,0 0,-3.32833"
             id="path2391"
             style="fill:#294172;enable-background:new" />
        </g>
        <g
           id="g5706"
           transform="matrix(0.67241382,0,0,0.67241382,-35.67614,139.78326)">
          <g
             id="layer1-9"
             transform="matrix(0.77730479,0,0,0.77730479,-218.08613,-345.12)">
            <path
               style="fill:#294172"
               id="path25"
               d="m 483.29893,363.57426 c 0,-10.06788 -8.16108,-18.22938 -18.22897,-18.22938 -10.06282,0 -18.22179,8.15475 -18.22854,18.21631 l -4.2e-4,-4.2e-4 0,14.1071 4.2e-4,4.2e-4 c 0.005,2.28463 1.85832,4.13409 4.14463,4.13409 0.007,0 0.0127,-8.4e-4 0.0194,-8.4e-4 l 10e-4,8.4e-4 14.07083,0 0,0 c 10.06409,-0.004 18.22138,-8.16276 18.22138,-18.22812 z"
               inkscape:connector-curvature="0" />
            <path
               style="fill:#3c6eb4"
               id="path29"
               d="m 470.42227,349.66577 c -4.72528,0 -8.55576,3.83049 -8.55576,8.55577 0,0.002 0,0.004 0,0.006 l 0,4.52836 -4.51444,0 c -8.5e-4,0 -8.5e-4,0 -0.001,0 -4.72528,0 -8.55576,3.81193 -8.55576,8.53678 0,4.72528 3.83048,8.55577 8.55576,8.55577 4.72486,0 8.55534,-3.83049 8.55534,-8.55577 0,-0.002 0,-0.004 0,-0.006 l 0,-4.54733 4.51444,0 c 8.5e-4,0 0.001,0 0.002,0 4.72486,0 8.55534,-3.79296 8.55534,-8.51781 0,-4.72528 -3.83048,-8.55577 -8.55534,-8.55577 z m -8.55576,21.63483 c -0.004,2.48998 -2.02446,4.50811 -4.51571,4.50811 -2.49378,0 -4.53426,-2.02193 -4.53426,-4.5157 0,-2.49421 2.04048,-4.55366 4.53426,-4.55366 0.002,0 0.004,4.2e-4 0.006,4.2e-4 l 3.86971,0 c 10e-4,0 0.002,-4.2e-4 0.003,-4.2e-4 0.35209,0 0.63799,0.28505 0.63799,0.63715 0,4.2e-4 -4.2e-4,8.4e-4 -4.2e-4,10e-4 l 0,3.92284 -4.2e-4,0 z m 8.55534,-8.5448 c -0.001,0 -0.003,0 -0.004,0 l -3.87223,0 c -8.4e-4,0 -0.002,0 -0.002,0 -0.35252,0 -0.63757,-0.28506 -0.63757,-0.63758 l 0,-4.2e-4 0,-3.90343 c 0.004,-2.49083 2.02446,-4.50854 4.51571,-4.50854 2.49378,0 4.53468,2.02193 4.53468,4.51613 4.2e-4,2.49336 -2.04048,4.53384 -4.53426,4.53384 z"
               inkscape:connector-curvature="0" />
            <path
               style="fill:#ffffff"
               id="path31"
               d="m 461.86651,362.7558 0,-4.52836 c 0,-0.002 0,-0.004 0,-0.006 0,-4.72528 3.83048,-8.55577 8.55576,-8.55577 0.71685,0 1.22623,0.0805 1.88952,0.25469 0.96774,0.25385 1.75796,1.04618 1.75838,1.96922 4.2e-4,1.11575 -0.80919,1.92621 -2.0194,1.92621 -0.57642,0 -0.78473,-0.11048 -1.62892,-0.11048 -2.49125,0 -4.51149,2.01771 -4.51571,4.50854 l 0,3.90385 0,4.2e-4 c 0,0.35252 0.28505,0.63758 0.63757,0.63758 4.3e-4,0 0.001,0 0.002,0 l 2.96521,0 c 1.10521,0 1.99747,0.88467 1.99832,1.99283 0,1.10816 -0.89353,1.99114 -1.99832,1.99114 l -3.60489,0 0,4.54733 c 0,0.002 0,0.004 0,0.006 0,4.72485 -3.83048,8.55534 -8.55534,8.55534 -0.71684,0 -1.22623,-0.0805 -1.88952,-0.25469 -0.96774,-0.25343 -1.75838,-1.04618 -1.7588,-1.9688 0,-1.11575 0.80919,-1.92663 2.01982,-1.92663 0.576,0 0.78473,0.11048 1.6285,0.11048 2.49125,0 4.51191,-2.01771 4.51613,-4.50811 0,0 0,-3.92368 0,-3.9241 0,-0.35168 -0.2859,-0.63673 -0.63799,-0.63673 -4.3e-4,0 -8.5e-4,0 -0.002,0 l -2.96521,-4.2e-4 c -1.10521,0 -1.99831,-0.88214 -1.99831,-1.9903 -4.3e-4,-1.11533 0.90238,-1.99367 2.01939,-1.99367 l 3.58339,0 0,0 z"
               inkscape:connector-curvature="0" />
          </g>
        </g>
      </g>
    </g>
  </g>
</svg>
