<?xml version="1.0" encoding="UTF-8" standalone="no"?>
<!-- Created with Inkscape (http://www.inkscape.org/) -->

<svg
   xmlns:dc="http://purl.org/dc/elements/1.1/"
   xmlns:cc="http://creativecommons.org/ns#"
   xmlns:rdf="http://www.w3.org/1999/02/22-rdf-syntax-ns#"
   xmlns:svg="http://www.w3.org/2000/svg"
   xmlns="http://www.w3.org/2000/svg"
   xmlns:sodipodi="http://sodipodi.sourceforge.net/DTD/sodipodi-0.dtd"
   xmlns:inkscape="http://www.inkscape.org/namespaces/inkscape"
   width="45mm"
   height="10.58333mm"
   viewBox="0 0 45 10.58333"
   id="svg2"
   version="1.1"
   inkscape:version="0.92.4 5da689c313, 2019-01-14"
   sodipodi:docname="FedoraAccounts.svg"
   inkscape:export-filename="/home/rlerch/Source/noggin/noggin/themes/fas/static/images/FAS.png"
   inkscape:export-xdpi="192.00006"
   inkscape:export-ydpi="192.00006">
  <defs
     id="defs4" />
  <sodipodi:namedview
     id="base"
     pagecolor="#ffffff"
     bordercolor="#666666"
     borderopacity="1.0"
     inkscape:pageopacity="0.0"
     inkscape:pageshadow="2"
     inkscape:zoom="2"
     inkscape:cx="127.26251"
     inkscape:cy="-28.871112"
     inkscape:document-units="mm"
     inkscape:current-layer="g843"
     showgrid="false"
     fit-margin-top="0"
     fit-margin-left="0"
     fit-margin-right="0"
     fit-margin-bottom="0"
     inkscape:window-width="1920"
     inkscape:window-height="1163"
     inkscape:window-x="0"
     inkscape:window-y="0"
     inkscape:window-maximized="1"
     inkscape:snap-bbox="true"
     inkscape:bbox-nodes="true"
     inkscape:snap-page="true"
     inkscape:snap-global="false" />
  <metadata
     id="metadata7">
    <rdf:RDF>
      <cc:Work
         rdf:about="">
        <dc:format>image/svg+xml</dc:format>
        <dc:type
           rdf:resource="http://purl.org/dc/dcmitype/StillImage" />
        <dc:title></dc:title>
      </cc:Work>
    </rdf:RDF>
  </metadata>
  <g
     inkscape:label="Layer 1"
     inkscape:groupmode="layer"
     id="layer1"
     transform="translate(-48.767028,-31.073165)">
    <g
       id="g4595"
       transform="matrix(0.45619308,0,0,0.45619308,26.519847,-9.145808)">
      <g
         id="g4624"
         transform="matrix(0.92003825,0,0,0.92003825,3.8994993,8.9046582)">
        <g
           id="g843"
           transform="matrix(0.38257917,0,0,0.38257917,65.733963,52.986902)"
           style="stroke-width:2.6138382">
          <text
             xml:space="preserve"
             style="font-style:normal;font-weight:normal;font-size:37.19499588px;line-height:1.25;font-family:sans-serif;letter-spacing:0px;word-spacing:0px;fill:#294172;fill-opacity:1;stroke:none;stroke-width:2.43055153"
             x="21.046682"
             y="133.32205"
             id="text1036"><tspan
               sodipodi:role="line"
               id="tspan1034"
               x="21.046682"
               y="133.32205"
               style="font-style:normal;font-variant:normal;font-weight:600;font-stretch:normal;font-family:Montserrat;-inkscape-font-specification:'Montserrat Semi-Bold';letter-spacing:-0.63917887px;fill:#294172;fill-opacity:1;stroke-width:2.43055153">ACCOUNTS</tspan></text>
          <path
             inkscape:connector-curvature="0"
             id="path849"
             style="fill:#ffffff;fill-opacity:1;fill-rule:nonzero;stroke:none;stroke-width:2.19699001"
             d="m -12.00589,100.46109 c -10.368424,0 -18.771402,8.40008 -18.778163,18.76615 h -0.0039 v 14.5359 h 0.0039 c 0.0039,2.35333 1.91177,4.25828 4.266312,4.25828 h 0.02032 0.0039 14.495868 c 10.3695963,-0.006 18.7701519,-8.40944 18.7701519,-18.77818 0,-10.37308 -8.4050302,-18.78215 -18.7781439,-18.78215 z"
             sodipodi:nodetypes="sccccscccsss" />
          <path
             d="m -12.005487,96.341776 c -12.642671,0 -22.888789,10.242594 -22.897033,22.882384 h -0.0048 v 17.72426 h 0.0048 c 0.0048,2.86952 2.331105,5.19231 5.202101,5.19231 h 0.02478 0.0048 17.675443 c 12.64410051,-0.007 22.887264,-10.254 22.887264,-22.89706 0,-12.64834 -10.24861949,-22.901894 -22.897009,-22.901894 z m 4.6409095,9.423294 c 3.845442,0 7.47619101,2.94653 7.47619101,7.00774 0,0.37666 -0.0015,0.75375 -0.06338,1.18097 -0.106263,1.08051 -1.09157401,1.8554 -2.16675601,1.7031 -1.07511,-0.15415 -1.804438,-1.17196 -1.605494,-2.23992 0.01668,-0.12175 0.02478,-0.31519 0.02478,-0.64415 0,-2.30261 -1.883016,-3.19155 -3.664891,-3.19155 -1.780827,0 -3.3873455,1.49747 -3.3916335,3.19155 0.03074,1.95964 0,3.90522 0,5.8609 l 3.3037885,-0.0245 c 2.580369,-0.0536 2.60927,3.83589 0.02907,3.81619 l -3.3330705,0.0245 c -0.01191,1.57614 0.0143,1.28992 0.0048,2.08372 0,0 0.02859,1.92526 -0.02931,3.38677 -0.39889,4.2923 -4.052226,7.72503 -8.442418,7.72503 -4.653252,0 -8.491236,-3.80699 -8.491236,-8.4717 0.139618,-4.79876 3.970097,-8.57017 8.78889,-8.52538 l 2.684012,-0.0191 v 3.81127 l -2.684012,0.0246 h -0.01906 c -2.648463,0.0781 -4.914691,1.873 -4.958078,4.70919 0,2.5843 2.088465,4.65556 4.679913,4.65556 2.58716,0 4.655539,-1.8843 4.655539,-4.65065 0.02931,-4.58769 -0.01906,-9.65543 -0.0048,-14.42045 0.0015,-0.26778 0.01668,-0.48061 0.04408,-0.77591 0.436868,-3.52792 3.59258,-6.21717 7.1638835,-6.21717 z"
             style="fill:#51a2da;fill-opacity:1;fill-rule:nonzero;stroke:none;stroke-width:2.19699001"
             id="path1038"
             inkscape:connector-curvature="0" />
        </g>
      </g>
    </g>
  </g>
</svg>
