<?xml version="1.0" standalone="no"?>
<!DOCTYPE svg PUBLIC "-//W3C//DTD SVG 20010904//EN"
 "http://www.w3.org/TR/2001/REC-SVG-20010904/DTD/svg10.dtd">
<svg version="1.0" xmlns="http://www.w3.org/2000/svg"
 width="700.000000pt" height="700.000000pt" viewBox="0 0 700.000000 700.000000"
 preserveAspectRatio="xMidYMid meet">
<metadata>
Created by potrace 1.11, written by Peter Selinger 2001-2013
</metadata>
<g transform="translate(0.000000,700.000000) scale(0.100000,-0.100000)"
fill="#000000" stroke="none">
<path d="M2500 6994 c-14 -2 -59 -9 -100 -15 -158 -23 -358 -103 -512 -206
-96 -63 -282 -248 -345 -343 -216 -323 -282 -697 -188 -1065 127 -501 538
-882 1045 -969 121 -21 329 -21 450 0 438 75 820 382 987 790 206 506 86 1071
-307 1448 -185 176 -405 292 -650 341 -74 15 -331 28 -380 19z"/>
<path d="M4580 4359 c-942 -97 -1727 -817 -1909 -1751 -38 -192 -41 -288 -41
-1242 0 -805 2 -940 15 -991 42 -160 162 -288 325 -347 l65 -23 975 0 c1087 0
1065 -1 1350 71 805 205 1440 878 1594 1691 41 219 50 506 21 713 -121 866
-740 1577 -1572 1809 -263 73 -550 98 -823 70z m738 -939 c210 -59 390 -204
477 -385 51 -105 67 -189 63 -325 -3 -104 -6 -119 -30 -162 -21 -34 -41 -53
-80 -72 -76 -38 -147 -31 -209 21 -53 45 -69 93 -69 214 0 113 -9 152 -49 212
-68 105 -255 164 -392 123 -69 -20 -140 -80 -177 -150 l-27 -51 -3 -327 -3
-328 161 0 c171 0 210 -8 259 -53 95 -87 76 -288 -33 -352 -39 -23 -53 -25
-162 -25 -65 0 -143 -3 -171 -6 l-53 -7 0 -221 c0 -265 -11 -368 -48 -475
-128 -359 -518 -613 -906 -588 -116 8 -199 29 -306 79 -297 137 -489 434 -490
756 0 352 221 687 545 821 115 48 191 61 388 68 l177 6 -2 -219 -3 -219 -175
-6 c-201 -7 -259 -22 -363 -93 -71 -49 -138 -140 -162 -218 -21 -72 -19 -192
4 -267 85 -272 395 -399 657 -270 109 54 199 181 223 313 7 40 11 323 11 841
0 870 -3 833 70 980 104 212 323 368 575 409 62 10 231 -4 303 -24z"/>
<path d="M1785 3929 c-457 -43 -870 -236 -1196 -559 -283 -280 -462 -604 -543
-981 -36 -169 -48 -320 -44 -549 4 -184 6 -211 27 -263 45 -114 130 -192 261
-239 l65 -23 917 -3 917 -3 3 708 c5 787 4 786 75 1008 91 286 262 555 505
796 l108 107 -31 6 c-46 9 -959 5 -1064 -5z"/>
</g>
</svg>
