<?xml version="1.0" standalone="no"?>
<!DOCTYPE svg PUBLIC "-//W3C//DTD SVG 20010904//EN"
 "http://www.w3.org/TR/2001/REC-SVG-20010904/DTD/svg10.dtd">
<svg version="1.0" xmlns="http://www.w3.org/2000/svg"
 width="976.000000pt" height="976.000000pt" viewBox="0 0 976.000000 976.000000"
 preserveAspectRatio="xMidYMid meet">
<metadata>
Created by potrace 1.14, written by Peter Selinger 2001-2017
</metadata>
<g transform="translate(0.000000,976.000000) scale(0.100000,-0.100000)"
fill="#000000" stroke="none">
<path d="M2509 9646 c-2 -2 -22 -6 -44 -10 -55 -8 -75 -12 -107 -25 -16 -6
-28 -8 -28 -5 0 4 -6 1 -13 -5 -8 -6 -17 -8 -20 -4 -4 3 -7 1 -7 -5 0 -7 -9
-12 -20 -12 -11 0 -20 -4 -20 -10 0 -5 -6 -10 -13 -10 -15 0 -117 -69 -155
-104 -12 -12 -39 -43 -60 -71 -20 -27 -39 -52 -42 -55 -26 -25 -78 -164 -96
-259 -18 -93 -20 -264 -4 -305 5 -15 7 -26 5 -26 -5 0 17 -62 43 -120 38 -87
129 -199 223 -276 33 -27 149 -95 149 -88 0 3 15 -4 34 -15 18 -12 42 -21 53
-21 11 0 23 -3 27 -7 3 -4 14 -8 24 -9 9 -1 31 -5 47 -9 47 -11 146 -12 195
-3 25 5 57 11 71 13 62 11 249 91 249 106 0 5 5 9 11 9 28 0 136 99 196 180
62 84 93 151 131 290 2 8 6 62 8 120 2 79 -1 123 -15 177 -55 213 -203 387
-419 491 -34 17 -62 28 -62 25 0 -3 -7 0 -15 7 -8 7 -15 9 -15 6 0 -4 -8 -2
-17 3 -10 5 -34 12 -53 16 -39 8 -235 17 -241 11z"/>
<path d="M7468 9319 c-15 -4 -45 -10 -65 -13 -38 -5 -118 -36 -183 -70 -75
-39 -190 -145 -242 -221 -36 -54 -78 -135 -78 -151 0 -8 -4 -14 -10 -14 -6 0
-9 -3 -8 -7 1 -5 -6 -42 -15 -83 -26 -117 -27 -195 -5 -335 7 -39 52 -155 60
-155 5 0 7 -4 4 -9 -9 -13 102 -158 160 -210 56 -50 131 -101 190 -127 106
-47 227 -71 334 -68 52 1 109 5 125 9 89 18 194 63 273 117 51 35 172 151 172
165 0 5 9 18 19 28 21 18 100 170 106 202 2 10 4 18 5 18 1 0 3 9 5 20 2 11 7
36 11 55 9 41 9 182 1 225 -10 53 -16 77 -28 112 -18 55 -78 165 -117 213 -42
52 -118 130 -126 130 -3 0 -15 8 -25 18 -11 9 -26 22 -34 28 -19 16 -181 94
-204 99 -10 2 -40 9 -68 15 -59 15 -218 20 -257 9z"/>
<path d="M3760 9108 c-96 -36 -175 -108 -238 -218 -35 -60 -89 -189 -98 -235
-2 -11 -8 -21 -14 -23 -5 -2 -10 -10 -10 -18 0 -16 -65 -140 -86 -165 -8 -8
-14 -19 -14 -23 0 -4 -6 -13 -12 -20 -7 -7 -22 -25 -33 -41 -41 -56 -186 -185
-210 -185 -5 0 -16 -6 -24 -13 -23 -20 -145 -66 -205 -78 -99 -20 -112 -21
-211 -22 -102 -1 -204 9 -295 26 -149 29 -202 37 -209 33 -4 -3 -18 -7 -32 -9
-13 -3 -44 -11 -69 -18 -25 -7 -47 -13 -50 -14 -16 -3 -91 -43 -130 -68 -56
-37 -139 -123 -165 -174 -11 -21 -22 -40 -25 -43 -12 -11 -42 -118 -45 -160
-9 -113 -3 -318 11 -382 3 -13 8 -39 10 -58 3 -19 10 -47 15 -61 6 -14 9 -30
8 -35 -11 -40 153 -422 207 -485 8 -8 14 -21 14 -27 0 -7 4 -12 8 -12 5 0 14
-10 19 -22 6 -13 18 -32 27 -43 9 -11 35 -45 59 -75 114 -149 366 -396 532
-523 6 -4 26 -21 45 -37 19 -16 40 -30 47 -30 6 0 13 -3 15 -8 3 -8 153 -108
153 -102 0 2 19 -9 42 -23 24 -15 45 -27 49 -27 3 0 19 -9 35 -21 16 -11 29
-18 29 -15 0 2 38 -13 85 -35 47 -21 90 -39 96 -39 6 0 25 -6 42 -14 43 -20
218 -71 282 -83 11 -2 36 -8 55 -13 38 -10 75 -17 136 -25 21 -3 57 -8 79 -11
178 -25 646 -39 775 -22 60 8 92 33 85 69 -6 32 -21 45 -67 58 -24 6 -52 16
-63 21 -11 5 -72 30 -135 56 -63 25 -126 51 -140 57 -14 6 -28 11 -32 12 -5 2
-10 4 -13 5 -3 1 -8 3 -12 5 -15 3 -68 26 -97 41 -16 8 -33 14 -37 14 -5 0
-45 18 -89 39 -44 22 -80 38 -80 35 0 -4 -55 25 -195 104 -151 85 -536 347
-615 419 -192 173 -293 336 -336 546 -5 26 -6 166 -1 187 2 8 7 30 11 49 23
95 102 203 199 270 38 26 125 67 162 76 6 1 17 5 25 8 15 6 97 29 115 32 6 1
12 3 15 4 3 1 25 4 49 7 25 2 56 6 70 9 57 11 265 4 311 -10 8 -2 31 -7 50
-11 41 -7 50 -9 70 -17 141 -54 217 -66 259 -41 26 15 60 70 63 99 0 6 4 21 9
34 5 13 12 40 14 60 3 20 7 47 11 61 5 22 14 69 18 95 1 6 5 16 9 23 5 6 6 12
2 12 -3 0 -1 8 4 19 6 10 13 33 16 51 7 38 70 211 93 255 9 17 15 33 14 38 -1
4 3 7 9 7 5 0 8 4 4 9 -3 5 1 15 8 23 7 7 18 24 25 38 28 56 143 230 175 264
9 11 17 26 17 33 0 7 4 13 8 13 5 0 21 27 37 60 52 109 36 172 -63 245 -26 19
-52 39 -59 45 -7 5 -15 10 -17 10 -3 0 -34 17 -68 38 -82 49 -205 107 -248
118 -19 4 -42 10 -50 12 -8 2 -53 5 -100 7 -66 2 -97 -2 -140 -17z"/>
<path d="M6127 9104 c-1 -1 -36 -5 -77 -8 -41 -4 -82 -9 -90 -10 -37 -7 -78
-19 -112 -32 -21 -8 -38 -12 -38 -10 0 12 -204 -98 -230 -124 -3 -3 -34 -29
-70 -59 -76 -63 -247 -234 -305 -305 -22 -26 -52 -62 -66 -80 -72 -87 -237
-346 -221 -346 4 0 2 -4 -4 -8 -9 -6 -80 -138 -85 -157 -7 -33 -13 -45 -18
-45 -4 0 -8 -6 -8 -12 -1 -7 -19 -62 -42 -123 -36 -94 -65 -187 -76 -245 -2
-8 -8 -33 -13 -55 -6 -22 -14 -60 -17 -85 -3 -25 -8 -53 -11 -62 -9 -31 -15
-78 -29 -228 -5 -48 -5 -356 -1 -401 4 -34 13 -120 22 -194 2 -16 6 -41 9 -55
3 -14 7 -41 10 -60 2 -19 4 -35 5 -35 2 0 9 -34 15 -65 2 -14 4 -26 6 -27 1
-2 3 -7 4 -13 1 -5 4 -13 5 -17 1 -5 3 -12 4 -18 9 -49 74 -253 93 -287 8 -16
11 -28 7 -28 -3 0 -1 -6 5 -14 7 -8 13 -22 15 -32 2 -11 20 -54 40 -97 19 -42
36 -81 36 -85 1 -4 9 -15 17 -24 9 -10 12 -18 8 -18 -4 0 0 -9 10 -20 10 -11
15 -20 11 -20 -4 0 2 -13 13 -29 12 -16 21 -34 21 -40 0 -15 50 -26 69 -14 13
9 15 27 12 109 -7 167 -6 585 2 664 11 121 17 173 23 200 6 29 15 81 29 170 7
40 12 73 18 105 4 17 9 46 12 65 13 79 68 292 102 390 30 89 58 151 137 307 6
13 14 23 19 23 4 0 7 5 7 11 0 6 9 23 21 37 11 15 39 52 62 82 23 30 57 68 76
85 19 16 48 42 65 57 17 15 34 28 37 28 4 0 28 12 55 27 27 15 54 29 59 30 6
1 39 8 75 16 36 8 83 12 105 10 22 -2 47 -4 55 -4 29 -1 86 -21 149 -52 79
-38 182 -136 240 -227 22 -36 45 -70 51 -77 5 -7 10 -16 10 -21 0 -5 14 -34
31 -65 17 -31 27 -57 24 -57 -4 0 -3 -6 3 -13 40 -48 93 -296 105 -497 5 -73
15 -101 46 -127 26 -23 36 -26 101 -26 39 0 162 13 171 18 31 19 599 24 599 5
0 -3 12 -6 28 -6 53 -3 124 -15 141 -23 9 -5 21 -9 26 -10 26 -1 111 -25 123
-34 6 -5 12 -6 12 -2 0 4 7 2 15 -5 8 -7 15 -10 15 -6 0 4 13 0 29 -8 16 -9
31 -12 35 -9 3 4 6 2 6 -4 0 -10 2 -11 60 -17 43 -4 85 18 111 60 22 36 57
142 65 194 3 19 7 46 10 60 12 66 16 115 16 235 -1 185 -13 244 -68 327 -47
69 -86 103 -159 138 -83 39 -102 42 -335 45 -250 3 -288 7 -392 42 -134 44
-269 144 -362 267 -34 45 -128 218 -125 231 1 3 -3 18 -9 33 -20 56 -34 103
-38 130 -4 26 -21 115 -29 157 -2 11 -6 40 -9 65 -13 112 -48 230 -68 230 -5
0 -8 6 -8 14 0 21 -106 111 -165 140 -90 44 -157 60 -298 70 -20 1 -38 2 -40
0z"/>
<path d="M7260 6121 c0 -3 -39 -6 -88 -7 -48 0 -112 -3 -142 -7 -30 -3 -75 -9
-100 -12 -25 -3 -56 -7 -70 -10 -14 -3 -40 -8 -59 -11 -18 -3 -42 -8 -52 -10
-11 -2 -28 -6 -40 -9 -11 -2 -29 -7 -39 -10 -18 -6 -39 -11 -89 -21 -13 -3
-37 -12 -52 -20 -16 -8 -29 -12 -29 -9 0 3 -30 -7 -67 -21 -38 -14 -72 -27
-78 -28 -30 -8 -229 -98 -284 -129 -19 -10 -56 -30 -82 -44 -26 -13 -53 -31
-60 -39 -6 -8 -17 -14 -24 -14 -12 0 -249 -164 -281 -194 -7 -6 -36 -31 -65
-56 -104 -88 -121 -108 -118 -137 5 -48 15 -53 67 -37 26 8 54 16 62 18 8 2
71 20 140 39 196 55 266 71 405 92 11 2 20 4 20 5 0 1 11 3 25 5 14 1 39 5 55
8 44 8 142 18 208 22 32 2 84 6 115 9 178 17 502 24 587 12 17 -2 50 -7 75
-10 25 -4 59 -9 75 -13 17 -3 37 -7 45 -8 8 -2 35 -8 60 -14 25 -7 52 -14 60
-16 8 -2 16 -4 18 -5 1 -2 5 -3 10 -5 4 -1 15 -5 25 -8 9 -4 25 -10 35 -14 9
-3 20 -5 25 -5 4 1 7 -2 7 -6 0 -5 6 -9 14 -9 17 0 135 -61 154 -79 7 -8 18
-14 23 -14 5 0 37 -27 71 -59 151 -142 204 -323 148 -504 -21 -69 -62 -150
-87 -175 -7 -7 -13 -17 -13 -22 0 -14 -176 -187 -210 -207 -17 -9 -30 -21 -30
-25 0 -4 -6 -8 -14 -8 -8 0 -16 -4 -18 -8 -9 -22 -283 -162 -317 -162 -6 0
-25 -7 -43 -15 -18 -8 -52 -19 -75 -25 -24 -6 -55 -22 -70 -36 -23 -21 -27
-33 -26 -72 1 -59 3 -67 48 -181 20 -51 38 -99 40 -105 1 -6 5 -19 9 -28 4 -9
8 -22 10 -30 1 -7 5 -18 8 -24 4 -6 9 -21 12 -35 2 -13 11 -46 19 -74 25 -87
60 -263 67 -340 6 -60 1 -405 -5 -435 -20 -87 10 -137 95 -160 55 -15 129 -19
136 -8 3 5 11 5 17 0 10 -6 92 -9 92 -3 0 1 18 4 40 6 125 11 290 52 379 95
136 64 216 206 210 370 -1 41 -5 86 -8 100 -4 14 -9 39 -12 55 -3 17 -11 55
-19 86 -8 30 -17 66 -19 80 -2 13 -5 24 -6 24 -4 0 -10 45 -13 96 -2 31 -6 60
-9 65 -3 5 -2 18 2 29 4 11 4 32 0 46 -4 15 -4 32 0 40 5 7 7 16 5 19 -2 4 2
30 10 59 7 28 13 52 13 54 1 37 80 210 112 245 11 12 21 25 22 29 5 19 89 106
143 148 21 17 43 35 49 40 18 16 69 46 89 52 9 3 17 9 17 14 0 5 4 9 10 9 5 0
55 22 110 49 55 28 103 50 105 51 8 2 78 31 113 47 18 9 46 29 63 44 17 16 34
29 38 29 12 0 79 116 87 151 2 10 7 29 10 42 18 67 11 228 -15 319 -29 106
-112 295 -140 318 -3 3 -19 25 -35 49 -34 54 -168 187 -196 196 -11 4 -20 10
-20 15 0 5 -18 19 -40 31 -22 13 -40 26 -40 31 0 4 -6 8 -13 8 -7 0 -23 9 -35
20 -12 12 -22 18 -22 15 0 -2 -31 15 -70 40 -38 25 -70 42 -70 39 0 -3 -12 3
-27 14 -16 10 -46 27 -68 37 -22 9 -66 30 -97 46 -32 15 -58 25 -58 22 0 -3
-6 -1 -12 4 -7 5 -42 20 -78 32 -36 12 -72 25 -80 28 -8 3 -19 7 -25 8 -5 2
-50 14 -100 28 -80 23 -139 36 -185 42 -8 1 -22 5 -30 8 -8 3 -40 9 -70 12
-30 3 -71 8 -90 11 -19 2 -80 6 -135 9 -55 2 -100 4 -100 5 0 1 -10 3 -22 4
-13 2 -23 0 -23 -3z"/>
<path d="M1615 6103 c-49 -11 -241 -114 -257 -137 -4 -6 -8 -7 -8 -3 0 22
-220 -170 -220 -191 0 -4 -11 -20 -25 -36 -45 -52 -69 -132 -68 -226 1 -47 3
-94 6 -105 21 -95 108 -231 228 -356 85 -89 114 -123 162 -193 43 -64 111
-203 121 -251 70 -312 16 -525 -210 -830 -99 -133 -133 -196 -138 -251 -2 -17
-5 -35 -8 -40 -9 -18 8 -145 27 -202 21 -60 85 -182 96 -182 5 0 9 -6 9 -13 0
-30 205 -217 239 -217 6 0 11 -3 11 -8 0 -6 95 -55 110 -57 3 0 10 -3 15 -6 6
-4 26 -10 45 -14 19 -4 39 -10 45 -13 10 -6 21 -8 135 -19 154 -15 628 -7 682
12 11 4 37 8 128 19 14 2 35 6 48 10 12 4 35 9 50 12 47 7 98 20 177 46 33 11
67 21 75 23 15 3 46 15 98 37 15 6 29 12 32 13 35 12 212 96 220 105 3 3 21
13 40 24 96 52 209 125 230 151 7 8 17 15 22 15 5 0 15 6 22 13 7 6 35 30 61
52 53 44 238 225 297 292 51 57 198 253 211 281 6 12 14 22 19 22 4 0 8 6 8
14 0 8 7 16 15 20 8 3 15 10 15 16 0 6 11 26 25 44 14 18 25 36 25 39 0 4 15
30 34 59 18 29 58 105 88 168 77 160 88 186 88 202 0 8 4 18 8 24 5 5 19 45
32 89 14 44 28 82 32 83 5 2 6 8 3 13 -3 4 1 33 9 64 l14 55 -31 0 c-18 -1
-47 -9 -65 -19 -34 -18 -302 -278 -302 -293 0 -4 -4 -8 -8 -8 -5 0 -39 -29
-76 -65 -37 -36 -68 -65 -71 -65 -2 0 -19 -15 -37 -32 -19 -18 -56 -51 -82
-73 -27 -22 -58 -49 -70 -60 -33 -30 -212 -165 -286 -216 -36 -24 -68 -48 -71
-52 -3 -5 -9 -8 -13 -8 -3 1 -30 -14 -59 -32 -28 -18 -59 -36 -67 -40 -8 -4
-28 -15 -45 -25 -165 -100 -410 -193 -578 -219 -79 -13 -240 -7 -307 11 -66
17 -140 50 -174 76 -38 29 -106 100 -106 109 0 5 -6 16 -12 23 -16 16 -34 63
-55 138 -16 58 -20 187 -9 280 14 111 63 294 89 328 5 6 6 12 2 12 -5 0 -1 8
7 18 9 9 19 28 23 42 9 27 102 176 126 200 9 8 29 34 46 57 17 23 32 40 35 38
8 -9 55 93 53 116 -1 13 -3 33 -4 44 -1 27 -66 89 -181 175 -319 239 -536 501
-645 780 -32 81 -78 110 -150 93z"/>
<path d="M590 5095 c-200 -46 -374 -178 -489 -374 -31 -51 -76 -173 -90 -236
-7 -37 -7 -221 1 -255 11 -47 37 -130 45 -143 4 -6 8 -17 9 -24 1 -6 22 -42
47 -80 85 -130 210 -238 342 -295 111 -48 135 -52 280 -51 138 1 166 5 249 35
214 76 377 250 456 488 38 113 44 155 43 280 -1 109 -5 149 -21 184 -28 66
-60 126 -86 165 -39 59 -148 166 -194 191 -20 12 -56 31 -79 44 -24 14 -43 22
-43 19 0 -3 -6 -1 -12 5 -12 9 -78 31 -149 49 -46 11 -254 10 -309 -2z"/>
<path d="M5295 4893 c-50 -11 -46 -29 31 -151 41 -64 77 -122 81 -128 18 -23
34 -50 45 -74 7 -14 17 -32 24 -40 6 -8 28 -46 49 -85 21 -38 50 -90 63 -115
14 -25 38 -72 55 -105 80 -163 122 -251 124 -260 3 -15 43 -128 54 -150 5 -11
18 -49 29 -85 11 -36 24 -74 30 -85 8 -19 47 -145 56 -186 2 -11 6 -29 9 -41
42 -186 54 -349 40 -519 -8 -102 -54 -264 -79 -281 -6 -4 -7 -8 -3 -8 5 0 -1
-13 -12 -29 -12 -16 -21 -32 -21 -35 0 -11 -107 -116 -118 -116 -7 0 -12 -4
-12 -9 0 -5 -17 -18 -39 -29 -151 -79 -330 -76 -519 9 -66 30 -209 120 -264
166 -52 44 -218 214 -218 223 0 5 -6 15 -13 22 -7 7 -24 29 -37 48 -13 19 -35
46 -47 60 -13 14 -23 28 -23 31 0 6 -28 18 -52 23 -3 0 -9 4 -13 7 -10 11 -86
-10 -119 -33 -17 -12 -53 -41 -81 -64 -123 -102 -388 -277 -442 -290 -12 -4
-23 -10 -23 -14 0 -5 -17 -14 -37 -21 -21 -7 -49 -19 -63 -28 -13 -9 -26 -15
-27 -13 -2 2 -34 -8 -71 -22 -59 -22 -116 -39 -174 -52 -10 -2 -28 -6 -40 -9
-66 -15 -87 -18 -130 -19 -27 0 -48 -5 -48 -9 0 -5 -4 -5 -10 -2 -5 3 -24 -8
-41 -25 -32 -30 -32 -30 -26 -107 6 -74 55 -242 79 -270 6 -7 8 -13 5 -13 -10
0 80 -167 125 -233 57 -84 104 -128 174 -162 50 -25 72 -30 149 -32 74 -2 103
3 160 23 39 13 72 29 73 34 2 6 10 10 18 10 7 0 43 18 79 40 36 22 70 40 75
40 6 0 10 5 10 10 0 6 7 10 15 10 8 0 15 5 15 12 0 6 3 8 7 5 3 -4 20 2 37 12
35 21 158 71 190 77 23 4 53 11 89 19 30 8 206 8 237 0 14 -3 39 -8 55 -10 34
-4 117 -34 185 -68 123 -61 293 -213 398 -357 101 -140 208 -210 338 -225 17
-2 35 -5 40 -6 5 -1 11 -1 14 1 3 1 25 3 50 4 179 10 425 167 581 374 52 68
102 153 99 168 -1 4 2 10 7 13 8 6 79 205 88 246 2 11 9 35 14 54 6 19 9 37 6
39 -3 3 0 11 6 19 6 7 9 13 6 13 -4 0 0 17 7 38 7 20 12 45 10 54 -1 10 2 20
7 24 5 3 7 9 5 12 -2 4 0 28 4 53 32 171 35 579 5 730 -3 13 -7 42 -10 64 -3
22 -8 49 -12 60 -3 11 -7 31 -9 45 -4 37 -30 132 -66 240 -18 52 -33 97 -33
100 -6 23 -57 140 -77 178 -10 18 -18 37 -18 43 0 6 -9 24 -21 40 -11 16 -17
29 -14 29 3 0 -3 13 -14 29 -12 16 -21 32 -21 36 0 4 -13 27 -30 52 -16 24
-30 46 -30 49 0 9 -64 99 -72 102 -5 2 -8 9 -8 15 0 7 -11 26 -25 42 -13 17
-54 68 -92 115 -78 98 -258 282 -353 361 -36 30 -67 56 -70 59 -13 13 -123 93
-190 137 -109 73 -162 100 -185 96z"/>
<path d="M8910 4248 c-25 -5 -49 -10 -55 -12 -73 -20 -102 -29 -110 -36 -5 -5
-14 -9 -20 -11 -18 -4 -69 -29 -107 -52 -159 -96 -275 -261 -318 -454 -13 -59
-17 -214 -7 -286 12 -79 60 -202 110 -281 42 -66 130 -155 209 -209 38 -26 69
-46 70 -46 2 1 24 -8 50 -20 26 -11 53 -21 61 -21 7 0 17 -3 21 -7 6 -7 24
-10 76 -16 14 -2 30 -5 35 -8 12 -6 156 -3 205 5 264 39 474 209 581 471 15
38 15 37 32 115 20 93 21 213 1 306 -9 43 -17 84 -18 89 -1 6 -8 20 -14 33 -7
12 -10 22 -8 22 9 0 -55 113 -88 155 -35 46 -137 145 -149 145 -4 0 -17 9 -29
20 -12 11 -30 20 -40 20 -10 0 -18 4 -18 8 0 6 -57 33 -80 37 -3 1 -32 9 -65
19 -69 21 -254 29 -325 14z"/>
<path d="M4520 1578 c-19 -5 -48 -10 -65 -13 -39 -6 -135 -44 -156 -62 -8 -7
-19 -13 -24 -13 -9 0 -94 -64 -144 -109 -18 -17 -31 -31 -27 -31 4 0 -7 -15
-24 -32 -36 -39 -117 -197 -134 -263 -16 -59 -20 -101 -20 -205 0 -115 9 -202
24 -230 4 -8 9 -18 9 -22 8 -47 15 -68 24 -68 6 0 8 -3 4 -6 -9 -9 49 -110 97
-170 41 -51 153 -144 173 -144 6 0 13 -3 15 -7 7 -16 139 -67 204 -79 15 -3
32 -8 37 -11 5 -3 60 -7 121 -9 155 -4 254 23 386 105 52 32 67 43 129 101
101 94 196 272 217 405 7 43 7 210 1 235 -2 8 -7 29 -11 45 -18 70 -77 207
-96 225 -3 3 -17 21 -30 40 -83 122 -292 274 -405 294 -13 3 -28 7 -33 9 -28
18 -216 28 -272 15z"/>
</g>
</svg>
